<svg width="1350" height="89" viewBox="0 0 1350 89" fill="none" xmlns="http://www.w3.org/2000/svg">
<path d="M0 -0.5H-0.5V0V88V88.5H0H1350H1350.5V88V0V-0.5H1350H0Z" fill="white" stroke="#E2E5E6"/>
<path d="M105.82 19.648V37H102.976V25.792C102.976 25.344 103 24.86 103.048 24.34L97.8039 34.192C97.5559 34.664 97.1759 34.9 96.6639 34.9H96.2079C95.6959 34.9 95.3159 34.664 95.0679 34.192L89.7639 24.304C89.7879 24.568 89.8079 24.828 89.8239 25.084C89.8399 25.34 89.8479 25.576 89.8479 25.792V37H87.0039V19.648H89.4399C89.5839 19.648 89.7079 19.652 89.8119 19.66C89.9159 19.668 90.0079 19.688 90.0879 19.72C90.1759 19.752 90.2519 19.804 90.3159 19.876C90.3879 19.948 90.4559 20.044 90.5199 20.164L95.7159 29.8C95.8519 30.056 95.9759 30.32 96.0879 30.592C96.2079 30.864 96.3239 31.144 96.4359 31.432C96.5479 31.136 96.6639 30.852 96.7839 30.58C96.9039 30.3 97.0319 30.032 97.1679 29.776L102.292 20.164C102.356 20.044 102.424 19.948 102.496 19.876C102.568 19.804 102.644 19.752 102.724 19.72C102.812 19.688 102.908 19.668 103.012 19.66C103.116 19.652 103.24 19.648 103.384 19.648H105.82ZM117.343 30.28V37H114.127V30.28L107.803 19.648H110.647C110.927 19.648 111.147 19.716 111.307 19.852C111.475 19.988 111.615 20.16 111.727 20.368L114.895 26.164C115.079 26.508 115.239 26.832 115.375 27.136C115.519 27.44 115.647 27.744 115.759 28.048C115.863 27.744 115.983 27.44 116.119 27.136C116.255 26.832 116.411 26.508 116.587 26.164L119.743 20.368C119.831 20.192 119.963 20.028 120.139 19.876C120.315 19.724 120.539 19.648 120.811 19.648H123.667L117.343 30.28ZM93.748 51.648V69H90.904V57.792C90.904 57.344 90.928 56.86 90.976 56.34L85.732 66.192C85.484 66.664 85.104 66.9 84.592 66.9H84.136C83.624 66.9 83.244 66.664 82.996 66.192L77.692 56.304C77.716 56.568 77.736 56.828 77.752 57.084C77.768 57.34 77.776 57.576 77.776 57.792V69H74.932V51.648H77.368C77.512 51.648 77.636 51.652 77.74 51.66C77.844 51.668 77.936 51.688 78.016 51.72C78.104 51.752 78.18 51.804 78.244 51.876C78.316 51.948 78.384 52.044 78.448 52.164L83.644 61.8C83.78 62.056 83.904 62.32 84.016 62.592C84.136 62.864 84.252 63.144 84.364 63.432C84.476 63.136 84.592 62.852 84.712 62.58C84.832 62.3 84.96 62.032 85.096 61.776L90.22 52.164C90.284 52.044 90.352 51.948 90.424 51.876C90.496 51.804 90.572 51.752 90.652 51.72C90.74 51.688 90.836 51.668 90.94 51.66C91.044 51.652 91.168 51.648 91.312 51.648H93.748ZM106.988 62.448L104.876 56.676C104.772 56.42 104.664 56.116 104.552 55.764C104.44 55.412 104.328 55.032 104.216 54.624C104.112 55.032 104.004 55.416 103.892 55.776C103.78 56.128 103.672 56.436 103.568 56.7L101.468 62.448H106.988ZM112.688 69H110.192C109.912 69 109.684 68.932 109.508 68.796C109.332 68.652 109.2 68.476 109.112 68.268L107.816 64.728H100.628L99.3315 68.268C99.2675 68.452 99.1435 68.62 98.9595 68.772C98.7755 68.924 98.5475 69 98.2755 69H95.7555L102.584 51.648H105.872L112.688 69ZM119.928 59.904C120.536 59.904 121.064 59.828 121.512 59.676C121.968 59.524 122.34 59.316 122.628 59.052C122.924 58.78 123.144 58.46 123.288 58.092C123.432 57.724 123.504 57.32 123.504 56.88C123.504 56 123.212 55.324 122.628 54.852C122.052 54.38 121.168 54.144 119.976 54.144H117.912V59.904H119.928ZM128.232 69H125.316C124.764 69 124.364 68.784 124.116 68.352L120.468 62.796C120.332 62.588 120.18 62.44 120.012 62.352C119.852 62.264 119.612 62.22 119.292 62.22H117.912V69H114.684V51.648H119.976C121.152 51.648 122.16 51.772 123 52.02C123.848 52.26 124.54 52.6 125.076 53.04C125.62 53.48 126.02 54.008 126.276 54.624C126.532 55.232 126.66 55.904 126.66 56.64C126.66 57.224 126.572 57.776 126.396 58.296C126.228 58.816 125.98 59.288 125.652 59.712C125.332 60.136 124.932 60.508 124.452 60.828C123.98 61.148 123.44 61.4 122.832 61.584C123.04 61.704 123.232 61.848 123.408 62.016C123.584 62.176 123.744 62.368 123.888 62.592L128.232 69ZM141.98 54.3H136.748V69H133.52V54.3H128.288V51.648H141.98V54.3Z" fill="#53B175"/>
<circle cx="1300" cy="44" r="24" fill="#4F4F4F"/>
<path d="M1308 53V51C1308 49.9391 1307.58 48.9217 1306.83 48.1716C1306.08 47.4214 1305.06 47 1304 47H1296C1294.94 47 1293.92 47.4214 1293.17 48.1716C1292.42 48.9217 1292 49.9391 1292 51V53" stroke="#333333" stroke-width="1.5" stroke-linecap="round" stroke-linejoin="round"/>
<path d="M1300 43C1302.21 43 1304 41.2091 1304 39C1304 36.7909 1302.21 35 1300 35C1297.79 35 1296 36.7909 1296 39C1296 41.2091 1297.79 43 1300 43Z" stroke="#333333" stroke-width="1.5" stroke-linecap="round" stroke-linejoin="round"/>
<path fill-rule="evenodd" clip-rule="evenodd" d="M1136.32 36.2325L1133.6 39.0425L1145.06 51.0851L1156.6 39.1278L1153.91 36.2978L1145.08 45.4251L1136.32 36.2325Z" fill="black"/>
</svg>
