<svg width="76" height="50" viewBox="0 0 76 50" fill="none" xmlns="http://www.w3.org/2000/svg">
<path d="M11.172 3.804C11.076 3.972 10.972 4.096 10.86 4.176C10.756 4.248 10.624 4.284 10.464 4.284C10.296 4.284 10.112 4.224 9.912 4.104C9.72 3.976 9.488 3.836 9.216 3.684C8.944 3.532 8.624 3.396 8.256 3.276C7.896 3.148 7.468 3.084 6.972 3.084C6.524 3.084 6.132 3.14 5.796 3.252C5.46 3.356 5.176 3.504 4.944 3.696C4.72 3.888 4.552 4.12 4.44 4.392C4.328 4.656 4.272 4.948 4.272 5.268C4.272 5.676 4.384 6.016 4.608 6.288C4.84 6.56 5.144 6.792 5.52 6.984C5.896 7.176 6.324 7.348 6.804 7.5C7.284 7.652 7.776 7.816 8.28 7.992C8.784 8.16 9.276 8.36 9.756 8.592C10.236 8.816 10.664 9.104 11.04 9.456C11.416 9.8 11.716 10.224 11.94 10.728C12.172 11.232 12.288 11.844 12.288 12.564C12.288 13.348 12.152 14.084 11.88 14.772C11.616 15.452 11.224 16.048 10.704 16.56C10.192 17.064 9.564 17.464 8.82 17.76C8.076 18.048 7.224 18.192 6.264 18.192C5.712 18.192 5.168 18.136 4.632 18.024C4.096 17.92 3.58 17.768 3.084 17.568C2.596 17.368 2.136 17.128 1.704 16.848C1.272 16.568 0.888 16.256 0.552 15.912L1.5 14.364C1.58 14.252 1.684 14.16 1.812 14.088C1.94 14.008 2.076 13.968 2.22 13.968C2.42 13.968 2.636 14.052 2.868 14.22C3.1 14.38 3.376 14.56 3.696 14.76C4.016 14.96 4.388 15.144 4.812 15.312C5.244 15.472 5.76 15.552 6.36 15.552C7.28 15.552 7.992 15.336 8.496 14.904C9 14.464 9.252 13.836 9.252 13.02C9.252 12.564 9.136 12.192 8.904 11.904C8.68 11.616 8.38 11.376 8.004 11.184C7.628 10.984 7.2 10.816 6.72 10.68C6.24 10.544 5.752 10.396 5.256 10.236C4.76 10.076 4.272 9.884 3.792 9.66C3.312 9.436 2.884 9.144 2.508 8.784C2.132 8.424 1.828 7.976 1.596 7.44C1.372 6.896 1.26 6.228 1.26 5.436C1.26 4.804 1.384 4.188 1.632 3.588C1.888 2.988 2.256 2.456 2.736 1.992C3.216 1.528 3.808 1.156 4.512 0.875999C5.216 0.596 6.024 0.456 6.936 0.456C7.96 0.456 8.904 0.616 9.768 0.935999C10.632 1.256 11.368 1.704 11.976 2.28L11.172 3.804ZM22.2879 15.396C22.9119 15.396 23.4679 15.292 23.9559 15.084C24.4519 14.876 24.8679 14.584 25.2039 14.208C25.5399 13.832 25.7959 13.376 25.9719 12.84C26.1559 12.304 26.2479 11.704 26.2479 11.04V0.647999H29.4759V11.04C29.4759 12.072 29.3079 13.028 28.9719 13.908C28.6439 14.78 28.1679 15.536 27.5439 16.176C26.9279 16.808 26.1759 17.304 25.2879 17.664C24.3999 18.016 23.3999 18.192 22.2879 18.192C21.1679 18.192 20.1639 18.016 19.2759 17.664C18.3879 17.304 17.6319 16.808 17.0079 16.176C16.3919 15.536 15.9159 14.78 15.5799 13.908C15.2519 13.028 15.0879 12.072 15.0879 11.04V0.647999H18.3159V11.028C18.3159 11.692 18.4039 12.292 18.5799 12.828C18.7639 13.364 19.0239 13.824 19.3599 14.208C19.7039 14.584 20.1199 14.876 20.6079 15.084C21.1039 15.292 21.6639 15.396 22.2879 15.396ZM38.9564 9.372C39.5484 9.372 40.0644 9.3 40.5044 9.156C40.9444 9.004 41.3084 8.792 41.5964 8.52C41.8924 8.24 42.1124 7.904 42.2564 7.512C42.4004 7.112 42.4724 6.668 42.4724 6.18C42.4724 5.716 42.4004 5.296 42.2564 4.92C42.1124 4.544 41.8964 4.224 41.6084 3.96C41.3204 3.696 40.9564 3.496 40.5164 3.36C40.0764 3.216 39.5564 3.144 38.9564 3.144H36.5444V9.372H38.9564ZM38.9564 0.647999C40.1164 0.647999 41.1204 0.783999 41.9684 1.056C42.8164 1.328 43.5164 1.708 44.0684 2.196C44.6204 2.684 45.0284 3.268 45.2924 3.948C45.5644 4.628 45.7004 5.372 45.7004 6.18C45.7004 7.02 45.5604 7.792 45.2804 8.496C45.0004 9.192 44.5804 9.792 44.0204 10.296C43.4604 10.8 42.7564 11.192 41.9084 11.472C41.0684 11.752 40.0844 11.892 38.9564 11.892H36.5444V18H33.3164V0.647999H38.9564ZM51.6157 3.216V8.028H57.6877V10.512H51.6157V15.42H59.3197V18H48.3757V0.647999H59.3197V3.216H51.6157ZM67.6244 8.904C68.2324 8.904 68.7604 8.828 69.2084 8.676C69.6644 8.524 70.0364 8.316 70.3244 8.052C70.6204 7.78 70.8404 7.46 70.9844 7.092C71.1284 6.724 71.2004 6.32 71.2004 5.88C71.2004 5 70.9084 4.324 70.3244 3.852C69.7484 3.38 68.8644 3.144 67.6724 3.144H65.6084V8.904H67.6244ZM75.9284 18H73.0124C72.4604 18 72.0604 17.784 71.8124 17.352L68.1644 11.796C68.0284 11.588 67.8764 11.44 67.7084 11.352C67.5484 11.264 67.3084 11.22 66.9884 11.22H65.6084V18H62.3804V0.647999H67.6724C68.8484 0.647999 69.8564 0.771999 70.6964 1.02C71.5444 1.26 72.2364 1.6 72.7724 2.04C73.3164 2.48 73.7164 3.008 73.9724 3.624C74.2284 4.232 74.3564 4.904 74.3564 5.64C74.3564 6.224 74.2684 6.776 74.0924 7.296C73.9244 7.816 73.6764 8.288 73.3484 8.712C73.0284 9.136 72.6284 9.508 72.1484 9.828C71.6764 10.148 71.1364 10.4 70.5284 10.584C70.7364 10.704 70.9284 10.848 71.1044 11.016C71.2804 11.176 71.4404 11.368 71.5844 11.592L75.9284 18ZM20.748 32.648V50H17.904V38.792C17.904 38.344 17.928 37.86 17.976 37.34L12.732 47.192C12.484 47.664 12.104 47.9 11.592 47.9H11.136C10.624 47.9 10.244 47.664 9.996 47.192L4.692 37.304C4.716 37.568 4.736 37.828 4.752 38.084C4.768 38.34 4.776 38.576 4.776 38.792V50H1.932V32.648H4.368C4.512 32.648 4.636 32.652 4.74 32.66C4.844 32.668 4.936 32.688 5.016 32.72C5.104 32.752 5.18 32.804 5.244 32.876C5.316 32.948 5.384 33.044 5.448 33.164L10.644 42.8C10.78 43.056 10.904 43.32 11.016 43.592C11.136 43.864 11.252 44.144 11.364 44.432C11.476 44.136 11.592 43.852 11.712 43.58C11.832 43.3 11.96 43.032 12.096 42.776L17.22 33.164C17.284 33.044 17.352 32.948 17.424 32.876C17.496 32.804 17.572 32.752 17.652 32.72C17.74 32.688 17.836 32.668 17.94 32.66C18.044 32.652 18.168 32.648 18.312 32.648H20.748ZM33.9875 43.448L31.8755 37.676C31.7715 37.42 31.6635 37.116 31.5515 36.764C31.4395 36.412 31.3275 36.032 31.2155 35.624C31.1115 36.032 31.0035 36.416 30.8915 36.776C30.7795 37.128 30.6715 37.436 30.5675 37.7L28.4675 43.448H33.9875ZM39.6875 50H37.1915C36.9115 50 36.6835 49.932 36.5075 49.796C36.3315 49.652 36.1995 49.476 36.1115 49.268L34.8155 45.728H27.6275L26.3315 49.268C26.2675 49.452 26.1435 49.62 25.9595 49.772C25.7755 49.924 25.5475 50 25.2755 50H22.7555L29.5835 32.648H32.8715L39.6875 50ZM46.9276 40.904C47.5356 40.904 48.0636 40.828 48.5116 40.676C48.9676 40.524 49.3396 40.316 49.6276 40.052C49.9236 39.78 50.1436 39.46 50.2876 39.092C50.4316 38.724 50.5036 38.32 50.5036 37.88C50.5036 37 50.2116 36.324 49.6276 35.852C49.0516 35.38 48.1676 35.144 46.9756 35.144H44.9116V40.904H46.9276ZM55.2316 50H52.3156C51.7636 50 51.3636 49.784 51.1156 49.352L47.4676 43.796C47.3316 43.588 47.1796 43.44 47.0116 43.352C46.8516 43.264 46.6116 43.22 46.2916 43.22H44.9116V50H41.6836V32.648H46.9756C48.1516 32.648 49.1596 32.772 49.9996 33.02C50.8476 33.26 51.5396 33.6 52.0756 34.04C52.6196 34.48 53.0196 35.008 53.2756 35.624C53.5316 36.232 53.6596 36.904 53.6596 37.64C53.6596 38.224 53.5716 38.776 53.3956 39.296C53.2276 39.816 52.9796 40.288 52.6516 40.712C52.3316 41.136 51.9316 41.508 51.4516 41.828C50.9796 42.148 50.4396 42.4 49.8316 42.584C50.0396 42.704 50.2316 42.848 50.4076 43.016C50.5836 43.176 50.7436 43.368 50.8876 43.592L55.2316 50ZM68.9801 35.3H63.7481V50H60.5201V35.3H55.2881V32.648H68.9801V35.3Z" fill="#53B175"/>
</svg>
